<!DOCTYPE svg PUBLIC "-//W3C//DTD SVG 20010904//EN" "http://www.w3.org/TR/2001/REC-SVG-20010904/DTD/svg10.dtd">
<svg version="1.0" xmlns="http://www.w3.org/2000/svg" width="1025px" height="1200px" viewBox="0 0 10250 12000" preserveAspectRatio="xMidYMid meet">
<g id="layer101" fill="#a1886f" stroke="none">
 <path d="M0 6000 l0 -6000 5125 0 5125 0 0 6000 0 6000 -5125 0 -5125 0 0 -6000z"/>
 </g>
<g id="layer102" fill="#f2f1f1" stroke="none">
 <path d="M0 6000 l0 -6000 5125 0 5125 0 0 6000 0 6000 -5125 0 -5125 0 0 -6000z m7320 5019 c92 -42 150 -130 150 -230 0 -76 33 -199 72 -268 46 -81 149 -180 233 -223 80 -41 129 -54 235 -63 126 -12 192 -50 236 -137 l24 -47 0 -4008 c0 -3883 -1 -4009 -19 -4048 -23 -49 -74 -99 -121 -119 -20 -8 -69 -17 -110 -21 -219 -19 -402 -135 -490 -311 -31 -64 -60 -176 -60 -237 0 -101 -49 -184 -134 -230 l-41 -22 -2270 -3 c-2539 -3 -2339 -8 -2416 69 -50 50 -69 93 -69 156 0 75 -27 181 -65 261 -26 55 -54 93 -108 146 -110 110 -215 156 -387 171 -90 8 -149 34 -190 83 -65 78 -60 -254 -60 4106 0 2878 3 3982 11 4011 31 109 115 169 257 180 104 8 169 27 252 73 165 92 271 267 287 472 3 49 13 100 23 120 36 71 98 117 175 131 22 4 1055 6 2295 5 2043 -1 2258 -3 2290 -17z"/>
 <path d="M2959 10498 c-95 -322 -362 -590 -686 -688 l-73 -22 0 -2829 c0 -1556 2 -2829 4 -2829 5 0 302 314 1516 1600 179 190 480 508 668 708 l342 362 -2 1883 -3 1882 -872 3 -872 2 -22 -72z"/>
 <path d="M5197 10563 c-4 -3 -7 -852 -7 -1886 l0 -1880 78 -81 c42 -45 192 -203 332 -351 140 -149 402 -425 581 -615 382 -405 1127 -1194 1383 -1465 98 -104 192 -203 207 -220 l29 -30 0 2877 0 2876 -71 21 c-91 28 -239 104 -314 162 -83 64 -198 187 -251 269 -51 80 -76 134 -113 245 l-26 80 -911 3 c-501 1 -914 -1 -917 -5z"/>
 <path d="M4880 5979 c-132 -22 -263 -121 -323 -244 -158 -320 111 -688 466 -637 350 51 504 461 275 736 -91 110 -266 171 -418 145z"/>
 <path d="M3739 5068 c-715 -759 -999 -1059 -1096 -1161 -57 -59 -103 -112 -103 -117 0 -7 368 -9 1093 -8 l1092 3 3 432 2 431 -52 18 c-249 81 -469 284 -566 522 -19 47 -39 112 -45 144 -7 32 -14 58 -18 58 -3 0 -143 -145 -310 -322z"/>
 <path d="M5855 5343 c-9 -68 -70 -217 -120 -294 -55 -85 -163 -199 -240 -254 -70 -50 -178 -105 -253 -129 l-52 -18 2 -431 3 -432 1093 -3 c681 -1 1092 1 1092 7 0 6 -96 111 -212 234 -117 123 -456 481 -752 795 -297 315 -543 572 -547 572 -4 0 -10 -21 -14 -47z"/>
 <path d="M2202 2803 l3 -508 65 -17 c36 -10 106 -38 155 -62 250 -124 442 -346 526 -606 l27 -85 2025 -3 2024 -2 17 62 c58 208 220 432 406 558 82 56 230 126 296 141 l54 12 0 509 0 508 -1305 0 -1305 0 0 -280 c0 -307 -1 -316 -64 -383 -82 -88 -250 -88 -332 0 -63 67 -64 76 -64 383 l0 280 -1265 0 -1265 0 2 -507z"/>
 </g>

</svg>